<svg width="20" height="20" version="1.1" viewBox="0 0 20 20" xml:space="preserve" xmlns="http://www.w3.org/2000/svg"><g transform="matrix(.03268 0 0 .03268 0 1.72e-6)" stroke-width="25.6"><g stroke-width="25.6"><g id="Layers" stroke-width="25.6"><g stroke-width="25.6"><path d="m573.75 0h-382.5c-21.114 0-38.25 17.117-38.25 38.25v114.75h-114.75c-21.114 0-38.25 17.117-38.25 38.25v382.5c0 21.114 17.136 38.25 38.25 38.25h382.5c21.133 0 38.25-17.136 38.25-38.25v-114.75h114.75c21.114 0 38.25-17.136 38.25-38.25v-382.5c0-21.133-17.136-38.25-38.25-38.25zm-172.12 554.62h-344.25v-344.25h95.625v210.38c0 21.133 17.136 38.25 38.25 38.25h210.38zm153-153h-344.25v-344.25h344.25z" fill="#fff" stroke-width="25.6"/></g></g></g></g></svg>
