<svg width="20" height="20" version="1.1" viewBox="0 0 20 20" xml:space="preserve" xmlns="http://www.w3.org/2000/svg"><g fill="#fff"><path d="m8.2582 1.3644h3.4837v0.63563h1.2581v-0.72461c1.6e-4 -0.70322-0.52718-1.2754-1.1754-1.2754h-3.6491c-0.6482 0-1.1755 0.57217-1.1755 1.2754v0.72461h1.2582z"/><path d="m16.4 7h-12.799c-0.35071 0-0.62679 0.25608-0.59853 0.55539l1.07 11.325c0.059629 0.63224 0.67573 1.1192 1.4159 1.1192h9.0241c0.74019 0 1.3563-0.48694 1.4159-1.1193l1.07-11.325c0.028436-0.2993-0.24765-0.55539-0.59835-0.55539zm-9.7 11.792c-0.014304 7.36e-4 -0.028607 0.0012-0.042739 0.0012-0.35743 0-0.65747-0.23823-0.6797-0.54772l-0.67056-9.2976c-0.023093-0.32173 0.26281-0.59861 0.63851-0.61837 0.37449-0.019472 0.69934 0.22466 0.72244 0.54653l0.67039 9.2976c0.023265 0.32173-0.26264 0.59846-0.63834 0.61837zm3.9898-0.58238c0 0.32217-0.30521 0.58341-0.68176 0.58341-0.37656 0-0.68176-0.26124-0.68176-0.58341v-9.2977c0-0.32232 0.30521-0.58356 0.68176-0.58356 0.37638 0 0.68176 0.26125 0.68176 0.58356zm4.0041-9.2634-0.64023 9.2976c-0.0212 0.31007-0.32175 0.54919-0.67987 0.54919-0.01344 0-0.02705-3.02e-4 -0.04067-8.83e-4 -0.37587-0.01903-0.66264-0.29517-0.6404-0.6169l0.64006-9.2977c0.02205-0.32173 0.34364-0.56719 0.72054-0.54816 0.37587 0.018881 0.66264 0.29517 0.64058 0.6169z"/><path d="m17.973 4.4465-0.40766-1.0035c-0.10748-0.26453-0.40907-0.44298-0.74879-0.44298h-13.634c-0.33956 0-0.6413 0.17846-0.74863 0.44298l-0.40766 1.0035c-0.078613 0.19353 0.023694 0.39093 0.21466 0.48937 0.077829 0.040072 0.16994 0.064167 0.27114 0.064167h14.975c0.10121 0 0.19347-0.024095 0.27114-0.064296 0.19096-0.098441 0.29327-0.29584 0.21466-0.48924z"/></g></svg>
