<?xml version="1.0" encoding="UTF-8" standalone="no"?>
<svg
   xmlns:dc="http://purl.org/dc/elements/1.1/"
   xmlns:cc="http://creativecommons.org/ns#"
   xmlns:rdf="http://www.w3.org/1999/02/22-rdf-syntax-ns#"
   xmlns:svg="http://www.w3.org/2000/svg"
   xmlns="http://www.w3.org/2000/svg"
   xmlns:sodipodi="http://sodipodi.sourceforge.net/DTD/sodipodi-0.dtd"
   xmlns:inkscape="http://www.inkscape.org/namespaces/inkscape"
   width="64"
   height="48"
   version="1.1"
   viewBox="0 0 64 48"
   xml:space="preserve"
   id="svg8437"
   sodipodi:docname="draw-big.svg"
   inkscape:version="0.92.1 r15371"><metadata
     id="metadata8443"><rdf:RDF><cc:Work
         rdf:about=""><dc:format>image/svg+xml</dc:format><dc:type
           rdf:resource="http://purl.org/dc/dcmitype/StillImage" /><dc:title></dc:title></cc:Work></rdf:RDF></metadata><defs
     id="defs8441"><inkscape:path-effect
       effect="bspline"
       id="path-effect8455"
       is_visible="true"
       weight="33.333333"
       steps="2"
       helper_size="0"
       apply_no_weight="true"
       apply_with_weight="true"
       only_selected="false" /><inkscape:path-effect
       effect="bspline"
       id="path-effect8451"
       is_visible="true"
       weight="33.333333"
       steps="2"
       helper_size="0"
       apply_no_weight="true"
       apply_with_weight="true"
       only_selected="false" /><inkscape:path-effect
       effect="bspline"
       id="path-effect8447"
       is_visible="true"
       weight="33.333333"
       steps="2"
       helper_size="0"
       apply_no_weight="true"
       apply_with_weight="true"
       only_selected="false" /></defs><sodipodi:namedview
     pagecolor="#ffffff"
     bordercolor="#666666"
     borderopacity="1"
     objecttolerance="10"
     gridtolerance="10"
     guidetolerance="10"
     inkscape:pageopacity="0"
     inkscape:pageshadow="2"
     inkscape:window-width="1377"
     inkscape:window-height="965"
     id="namedview8439"
     showgrid="false"
     inkscape:pagecheckerboard="true"
     inkscape:showpageshadow="false"
     inkscape:zoom="8.3379675"
     inkscape:cx="26.853154"
     inkscape:cy="17.122794"
     inkscape:window-x="3424"
     inkscape:window-y="285"
     inkscape:window-maximized="0"
     inkscape:current-layer="svg8437" /><g
     id="g8435"
     style="stroke-width:11.36488438"
     transform="matrix(1.2000122,0,0,1.2000122,37.599904,12.599433)"><g
       transform="matrix(0.040666,-0.0043618,-0.0043558,0.040804,4.2196,1.2078)"
       id="g8421"
       style="stroke-width:11.36488438"><g
         id="g8419"
         style="stroke-width:11.36488438"><path
           d="m 180.44,342.68 c -23.852,-23.852 -63.353,-34.368 -99.873,-18.984 -32.344,14.59 -53.481,46.978 -53.833,82.69 0,39.434 -6.87,71.147 -13.652,82.09 l -13.081,21.093 24.756,1.772 c 6.064,0.44 12.422,0.66 18.97,0.66 48.193,0 106.98,-12.1 138.72,-41.25 31.192,-29.068 34.803,-91.261 -2.008,-128.07 z"
           id="path8417"
           inkscape:connector-curvature="0"
           style="fill:#ffffff;stroke-width:11.36488438" /></g></g><g
       transform="matrix(0.040666,-0.0043618,-0.0043558,0.040804,4.2196,1.2078)"
       id="g8427"
       style="stroke-width:11.36488438"><g
         id="g8425"
         style="stroke-width:11.36488438"><path
           d="m 244.26,279.14 c -14.681,-14.688 -31.222,-26.187 -48.744,-34.531 -15.172,15.654 -29.929,31.505 -44.266,47.3 18.763,5.281 36.026,15.167 50.413,29.594 14.407,14.377 24.719,32.302 30.17,51.85 15.613,-14.143 31.317,-28.707 47.091,-43.885 -8.009,-18.305 -19.601,-35.678 -34.664,-50.328 z"
           id="path8423"
           inkscape:connector-curvature="0"
           style="fill:#ffffff;stroke-width:11.36488438" /></g></g><g
       transform="matrix(0.040666,-0.0043618,-0.0043558,0.040804,4.2196,1.2078)"
       id="g8433"
       style="stroke-width:11.36488438"><g
         id="g8431"
         style="stroke-width:11.36488438"><path
           d="m 440,72 c -11.235,-11.221 -28.027,-18.163 -117.85,51.71 -53.438,41.572 -45.088,38.72 -103.26,96.889 l -1.185,1.185 -0.046,-0.027 -0.337,0.339 c 17.186,9.293 33.435,21.105 48.003,35.682 15.033,14.617 27.173,31.661 36.381,49.788 l 0.416,-0.408 -0.06,-0.101 1.672,-1.672 93.023,-112.71 c 58.499,-77.039 54.506,-109.41 43.241,-120.68 z"
           id="path8429"
           inkscape:connector-curvature="0"
           style="fill:#ffffff;stroke-width:11.36488438" /></g></g></g><path
     style="fill:none;stroke:#fefefe;stroke-width:1.99999976;stroke-linecap:butt;stroke-linejoin:miter;stroke-miterlimit:4;stroke-dasharray:none;stroke-opacity:1"
     d="M 1.1694691,14.578543 C 3.0926742,11.640974 5.0071312,8.7167675 7.3234346,5.7932979 9.639738,2.8698283 12.355595,-0.0543781 11.596257,3.31684 10.836919,6.6880581 6.6073048,16.356807 4.0251727,22.205234 c -2.582132,5.848427 -3.51709948,7.876506 -2.7791642,8.067658 0.7379353,0.191152 3.1421362,-1.459609 5.8356793,-3.346318 2.6935432,-1.88671 5.6765342,-4.009118 9.5494402,-7.264346 3.872906,-3.255227 8.636787,-7.641537 11.034354,-9.6691908 2.397567,-2.0276537 2.442089,-1.6975018 1.57938,-0.3311446 -0.86271,1.3663574 -2.6436,3.7717534 -5.582419,8.0399744 -2.938818,4.268222 -7.034865,10.399622 -8.598631,14.225 -1.563765,3.825378 -0.584276,5.334645 2.07252,4.766193 2.656796,-0.568452 6.975454,-3.20967 8.950429,-1.844052 1.974976,1.365617 1.618798,6.742384 3.153951,8.474031 1.535153,1.731646 4.948961,-0.186721 8.349266,-2.0975"
     id="path8453"
     inkscape:connector-curvature="0"
     inkscape:path-effect="#path-effect8455"
     inkscape:original-d="M 1.1694691,14.578543 C 3.0950629,11.642538 5.0095198,8.7183313 6.9128404,5.8059224 9.6398344,2.8699178 12.355691,-0.05428878 15.060412,-2.9666979 10.841935,6.6902524 6.6123206,16.359001 2.37157,26.039547 c -0.9238305,2.01628 -1.85879792,4.044359 -2.80490191,6.084236 2.41533841,-1.66256 4.81954011,-3.31332 7.21260481,-4.952285 2.9941283,-2.134206 5.9771191,-4.256614 8.9489741,-6.367225 4.775017,-4.398108 9.538898,-8.784418 14.291643,-13.1589297 0.05566,0.3183543 0.100183,0.6485062 0.133567,0.990457 -1.769754,2.3935977 -3.550645,4.7989937 -5.34267,7.2161877 -4.084912,6.119604 -8.18096,12.251004 -12.288143,18.394204 0.990626,1.497471 1.970116,3.006738 2.938469,4.527804 4.329796,-2.653016 8.648453,-5.294235 12.955976,-7.923657 -0.345042,5.364969 -0.70122,10.741736 -1.068535,16.130301 3.424945,-1.930165 6.838753,-3.848532 10.241424,-5.755101" /></svg>