<svg width="20" height="20" version="1.1" viewBox="0 0 20 20" xml:space="preserve" xmlns="http://www.w3.org/2000/svg"><g transform="rotate(90,10,10)" fill="#fff"><circle transform="matrix(-.66984 -.74251 -.74251 .66984 0 0)" cx="-9.6684" cy="-4.7457" r="1"/><circle transform="matrix(-.66984 -.74251 -.74251 .66984 0 0)" cx="-11.896" cy="-2.7362" r="1"/><circle transform="matrix(-.66984 -.74251 -.74251 .66984 0 0)" cx="-14.123" cy="-.72668" r="1"/><circle transform="matrix(-.66984 -.74251 -.74251 .66984 0 0)" cx="-16.351" cy="1.2828" r="1"/><path transform="matrix(0 .4375 -.21651 0 14.269 -4.3472)" d="m48.794 65.904h-16-16l8-13.856 8-13.856 8 13.856z"/><circle transform="matrix(-.66984 -.74251 -.74251 .66984 0 0)" cx="-18.578" cy="3.2924" r="1"/><path transform="matrix(0 .4375 .21651 0 5.7313 -4.3472)" d="m48.794 65.904h-16-16l8-13.856 8-13.856 8 13.856z"/><circle transform="matrix(-.66984 -.74251 -.74251 .66984 0 0)" cx="-20.806" cy="5.3019" r="1"/><circle transform="matrix(-.66984 -.74251 -.74251 .66984 0 0)" cx="-7.4409" cy="-6.7552" r="1"/></g></svg>
