<?xml version="1.0" encoding="UTF-8" standalone="no"?>
<!-- Generator: Adobe Illustrator 19.0.0, SVG Export Plug-In . SVG Version: 6.00 Build 0)  -->

<svg
   xmlns:dc="http://purl.org/dc/elements/1.1/"
   xmlns:cc="http://creativecommons.org/ns#"
   xmlns:rdf="http://www.w3.org/1999/02/22-rdf-syntax-ns#"
   xmlns:svg="http://www.w3.org/2000/svg"
   xmlns="http://www.w3.org/2000/svg"
   xmlns:sodipodi="http://sodipodi.sourceforge.net/DTD/sodipodi-0.dtd"
   xmlns:inkscape="http://www.inkscape.org/namespaces/inkscape"
   version="1.1"
   id="Layer_1"
   x="0px"
   y="0px"
   viewBox="0 0 32.000062 32.000062"
   xml:space="preserve"
   width="32"
   height="32"
   sodipodi:docname="picker.svg"
   inkscape:version="0.92.1 r15371"><metadata
     id="metadata8458"><rdf:RDF><cc:Work
         rdf:about=""><dc:format>image/svg+xml</dc:format><dc:type
           rdf:resource="http://purl.org/dc/dcmitype/StillImage" /><dc:title></dc:title></cc:Work></rdf:RDF></metadata><defs
     id="defs8456" /><sodipodi:namedview
     pagecolor="#ffffff"
     bordercolor="#666666"
     borderopacity="1"
     objecttolerance="10"
     gridtolerance="10"
     guidetolerance="10"
     inkscape:pageopacity="0"
     inkscape:pageshadow="2"
     inkscape:window-width="3200"
     inkscape:window-height="1675"
     id="namedview8454"
     showgrid="false"
     inkscape:showpageshadow="false"
     showborder="true"
     inkscape:pagecheckerboard="true"
     inkscape:zoom="45.254834"
     inkscape:cx="11.384555"
     inkscape:cy="13.242807"
     inkscape:window-x="-13"
     inkscape:window-y="-13"
     inkscape:window-maximized="1"
     inkscape:current-layer="Layer_1" /><g
     id="g8423"
     transform="translate(0,-480.00093)" /><g
     id="g8425"
     transform="translate(0,-480.00093)" /><g
     id="g8427"
     transform="translate(0,-480.00093)" /><g
     id="g8429"
     transform="translate(0,-480.00093)" /><g
     id="g8431"
     transform="translate(0,-480.00093)" /><g
     id="g8433"
     transform="translate(0,-480.00093)" /><g
     id="g8435"
     transform="translate(0,-480.00093)" /><g
     id="g8437"
     transform="translate(0,-480.00093)" /><g
     id="g8439"
     transform="translate(0,-480.00093)" /><g
     id="g8441"
     transform="translate(0,-480.00093)" /><g
     id="g8443"
     transform="translate(0,-480.00093)" /><g
     id="g8445"
     transform="translate(0,-480.00093)" /><g
     id="g8447"
     transform="translate(0,-480.00093)" /><g
     id="g8449"
     transform="translate(0,-480.00093)" /><g
     id="g8451"
     transform="translate(0,-480.00093)" /><path
     id="path8617"
     d="m 30.062706,1.9489689 c -3.60753,-3.6061263 -7.415469,-1.4023784 -9.219229,0.2003424 -0.80168,0.8013605 -1.40293,1.8030629 -1.40293,3.0051082 v 0 c 0,2.2037486 -2.2046,3.6061362 -4.20878,3.0051086 L 15.031348,7.9591855 13.628428,9.561916 15.031348,10.964293 3.0062696,22.984727 1.4029297,27.592566 0,28.994954 3.0062697,32.000062 4.6096194,30.397333 9.2192288,28.794612 21.244307,16.774178 l 1.402931,1.402379 1.402928,-1.202046 -0.20042,-0.400675 c -0.601259,-2.003406 0.801671,-4.207154 3.00627,-4.207154 v 0 c 1.20251,0 2.2046,-0.400685 2.805851,-1.202045 1.803759,-1.8030643 4.008358,-5.609532 0.400839,-9.2156681 z M 7.1094448,26.48529 4.6516913,27.750844 4.2508615,27.951186 4.4512809,27.550501 5.7176494,25.094043 17.341897,13.474293 l 1.592206,1.591591 z"
     inkscape:connector-curvature="0"
     style="fill:#ffffff;stroke-width:32.00006104"
     sodipodi:nodetypes="cccccccccccccccccccccccccccccc" /></svg>