<?xml version="1.0" encoding="UTF-8" standalone="no"?>
<!-- Generator: Adobe Illustrator 19.0.0, SVG Export Plug-In . SVG Version: 6.00 Build 0)  -->

<svg
   xmlns:dc="http://purl.org/dc/elements/1.1/"
   xmlns:cc="http://creativecommons.org/ns#"
   xmlns:rdf="http://www.w3.org/1999/02/22-rdf-syntax-ns#"
   xmlns:svg="http://www.w3.org/2000/svg"
   xmlns="http://www.w3.org/2000/svg"
   xmlns:sodipodi="http://sodipodi.sourceforge.net/DTD/sodipodi-0.dtd"
   xmlns:inkscape="http://www.inkscape.org/namespaces/inkscape"
   version="1.1"
   id="Capa_1"
   x="0px"
   y="0px"
   viewBox="0 0 64 64"
   xml:space="preserve"
   sodipodi:docname="rotate-right.svg"
   width="64"
   height="64"
   inkscape:version="0.92.1 r15371"><metadata
     id="metadata8518"><rdf:RDF><cc:Work
         rdf:about=""><dc:format>image/svg+xml</dc:format><dc:type
           rdf:resource="http://purl.org/dc/dcmitype/StillImage" /><dc:title /></cc:Work></rdf:RDF></metadata><defs
     id="defs8516" /><sodipodi:namedview
     pagecolor="#ffffff"
     bordercolor="#666666"
     borderopacity="1"
     objecttolerance="10"
     gridtolerance="10"
     guidetolerance="10"
     inkscape:pageopacity="0"
     inkscape:pageshadow="2"
     inkscape:window-width="1718"
     inkscape:window-height="1368"
     id="namedview8514"
     showgrid="false"
     inkscape:zoom="8"
     inkscape:cx="19.111486"
     inkscape:cy="39.755445"
     inkscape:window-x="-7"
     inkscape:window-y="0"
     inkscape:window-maximized="0"
     inkscape:current-layer="Capa_1" /><g
     id="g8483"
     transform="translate(0,-448)" /><g
     id="g8485"
     transform="translate(0,-448)" /><g
     id="g8487"
     transform="translate(0,-448)" /><g
     id="g8489"
     transform="translate(0,-448)" /><g
     id="g8491"
     transform="translate(0,-448)" /><g
     id="g8493"
     transform="translate(0,-448)" /><g
     id="g8495"
     transform="translate(0,-448)" /><g
     id="g8497"
     transform="translate(0,-448)" /><g
     id="g8499"
     transform="translate(0,-448)" /><g
     id="g8501"
     transform="translate(0,-448)" /><g
     id="g8503"
     transform="translate(0,-448)" /><g
     id="g8505"
     transform="translate(0,-448)" /><g
     id="g8507"
     transform="translate(0,-448)" /><g
     id="g8509"
     transform="translate(0,-448)" /><g
     id="g8511"
     transform="translate(0,-448)" /><path
     id="path8602"
     d="M 8.204606,53.205936 C -3.5826692,40.139916 -2.5459162,19.991438 10.520006,8.2042502 22.491235,-2.595381 40.409964,-2.629174 52.394,7.4895032 L 56.912819,3.4129254 57.251488,16.761498 44.008161,15.054633 48.043027,11.414659 C 38.245334,3.646098 23.993051,3.8521255 14.400582,12.50581 3.709032,22.150995 2.86096,38.633798 12.506166,49.325359 Z"
     inkscape:connector-curvature="0"
     style="fill:#ffffff;fill-opacity:1;stroke-width:0.11359388"
     sodipodi:nodetypes="cscccccscc" /><circle
     style="opacity:1;fill:#ffffff;fill-opacity:1;stroke:none;stroke-width:0.7754842;stroke-miterlimit:4;stroke-dasharray:none;stroke-opacity:1"
     id="path8662"
     cx="26.030867"
     cy="52.379856"
     r="3.2587247"
     transform="matrix(-0.74250645,0.66983891,0.66983891,0.74250645,0,0)" /><circle
     style="opacity:1;fill:#ffffff;fill-opacity:1;stroke:none;stroke-width:0.7754842;stroke-miterlimit:4;stroke-dasharray:none;stroke-opacity:1"
     id="path8662-7"
     cx="21.039938"
     cy="62.824921"
     r="3.2587247"
     transform="matrix(-0.74250645,0.66983891,0.66983891,0.74250645,0,0)" /><circle
     style="opacity:1;fill:#ffffff;fill-opacity:1;stroke:none;stroke-width:0.7754842;stroke-miterlimit:4;stroke-dasharray:none;stroke-opacity:1"
     id="path8662-7-9"
     cx="12.278465"
     cy="70.206116"
     r="3.2587247"
     transform="matrix(-0.74250645,0.66983891,0.66983891,0.74250645,0,0)" /><circle
     style="opacity:1;fill:#ffffff;fill-opacity:1;stroke:none;stroke-width:0.7754842;stroke-miterlimit:4;stroke-dasharray:none;stroke-opacity:1"
     id="path8662-7-7"
     cx="0.95531833"
     cy="73.353821"
     r="3.2587247"
     transform="matrix(-0.74250645,0.66983891,0.66983891,0.74250645,0,0)" /></svg>