<svg width=".52917cm" height=".52917cm" version="1.1" viewBox="0 0 20.000126 20.000126" xml:space="preserve" xmlns="http://www.w3.org/2000/svg"><g fill="#fff"><path d="m6 5.4616v11.077c0 0.12501 0.049581 0.23312 0.14855 0.32451 0.098841 0.09129 0.21612 0.13693 0.35148 0.13693h1c0.1355 0 0.2526-0.04565 0.35154-0.13693 0.098974-0.09136 0.14842-0.19947 0.14842-0.32451v-11.077c0-0.12508-0.049451-0.23322-0.14842-0.32461-0.098921-0.091289-0.21612-0.13698-0.35154-0.13698h-1c-0.13536 0-0.25264 0.04569-0.35148 0.137-0.098974 0.09144-0.14855 0.1996-0.14855 0.32458z"/><path d="m1.6 6h10.8c0.16247 0 0.30327-0.0495 0.42206-0.14842 0.11863-0.098974 0.1781-0.21611 0.1781-0.35154v-1c0-0.13539-0.05945-0.25254-0.1781-0.35162-0.11876-0.098841-0.25956-0.14842-0.42206-0.14842h-10.8c-0.16261 0-0.30317 0.04958-0.42197 0.14842-0.11867 0.098974-0.17807 0.21622-0.17807 0.35162v1c0 0.13539 0.059398 0.25254 0.1781 0.35154 0.11886 0.098921 0.25946 0.14842 0.42193 0.14842z"/><path d="m15.852 16.915c0.09897-0.05656 0.14849-0.1236 0.14849-0.20093v-7.4285c0-0.07743-0.04952-0.14437-0.14849-0.20094-0.09891-0.05651-0.21613-0.0848-0.35151-0.0848h-0.99997c-0.13538 0-0.2526 0.02829-0.35171 0.08481-0.09878 0.05662-0.14833 0.12359-0.14833 0.20094v7.4285c0 0.0773 0.04955 0.14435 0.14833 0.20093 0.09908 0.05651 0.21629 0.08483 0.35171 0.08483h0.99997c0.13538-3.1e-5 0.2526-0.02834 0.35151-0.08485z"/><path d="m11.364 10h7.2726c0.09847 0 0.18375-0.04955 0.25567-0.14853 0.07198-0.098891 0.10802-0.21611 0.10802-0.35153v-0.9999c0-0.13531-0.03604-0.25264-0.10802-0.35153-0.0719-0.09897-0.15718-0.14852-0.25567-0.14852h-7.2726c-0.09855 0-0.18375 0.04955-0.25575 0.14852-0.07192 0.09889-0.10792 0.21622-0.10792 0.35153v0.99998c0 0.13539 0.036 0.25272 0.10794 0.35153 0.07205 0.098971 0.15726 0.14844 0.25573 0.14844z"/></g></svg>
