<svg width=".52917cm" height=".52917cm" version="1.1" viewBox="0 0 20 20" xml:space="preserve" xmlns="http://www.w3.org/2000/svg"><g fill="#fff"><path d="m18.308 9h-16.615c-0.18751 0-0.34967-0.049581-0.48675-0.14855-0.13693-0.098834-0.20539-0.21611-0.20539-0.35147v-1c0-0.1355 0.068467-0.25259 0.20539-0.35153 0.13704-0.098971 0.2992-0.14842 0.48675-0.14842h16.615c0.18762 0 0.34982 0.049445 0.4869 0.14842 0.13693 0.098916 0.20547 0.21611 0.20547 0.35153v1c0 0.13536-0.06854 0.25264-0.2055 0.35147-0.13715 0.098971-0.29939 0.14855-0.48686 0.14855z"/><path d="m15.4 5h-10.8c-0.16247 0-0.30328-0.049499-0.42208-0.14842-0.11864-0.098971-0.1781-0.21611-0.1781-0.35153v-1c0-0.13539 0.059464-0.25253 0.1781-0.35161 0.11877-0.098834 0.25957-0.14842 0.42208-0.14842h10.8c0.16261 0 0.30318 0.049581 0.42198 0.14842 0.11867 0.098971 0.17807 0.21622 0.17807 0.35161v1c0 0.13539-0.0594 0.25253-0.1781 0.35153-0.11887 0.098916-0.25947 0.14842-0.42195 0.14842z"/><path d="m0.21211 15.148c0.14139-0.09897 0.30901-0.14849 0.50231-0.14849h18.571c0.19358 0 0.36092 0.04952 0.50235 0.14849 0.14127 0.09891 0.21199 0.21613 0.21199 0.35151v0.99996c0 0.13538-0.07071 0.2526-0.21203 0.35171-0.14155 0.09878-0.30897 0.14833-0.50235 0.14833h-18.571c-0.19326 0-0.36088-0.04955-0.50231-0.14833-0.14127-0.09908-0.21207-0.21629-0.21207-0.35171v-0.99996c7.8e-5 -0.13538 0.07083-0.2526 0.21211-0.35151z"/><path d="m16.364 13h-12.727c-0.17232 0-0.32155-0.04955-0.44741-0.14853-0.12597-0.09889-0.18904-0.21611-0.18904-0.35153v-0.99989c0-0.13531 0.063065-0.25264 0.18904-0.35153 0.12583-0.09897 0.27506-0.14852 0.44741-0.14852h12.727c0.17246 0 0.32155 0.04955 0.44755 0.14852 0.12586 0.09889 0.18886 0.21622 0.18886 0.35153v0.99997c0 0.13539-0.063 0.25272-0.1889 0.35153-0.12607 0.09897-0.2752 0.14844-0.44752 0.14844z"/></g></svg>
