<svg width="32" height="32" version="1.1" viewBox="0 0 32 32" xmlns="http://www.w3.org/2000/svg">
 <g transform="translate(0 -288.53)">
  <g transform="matrix(.4107 0 0 .41124 -2.5463 286.2)" fill="#fff">
   <path d="m6.2 73.773v-2.7664c0.2-2.7664 0-5.6316 0.6-8.2992 1.2-5.0388 4.662-6.3383 10.346-7.1721 6.8521-0.73493 6.9173-0.67851 14.154-1.2158 3.639-0.18869 7.1268-2.1247 8-5.1477 1.1-4.0508 0.4-7.904-1.7-11.461-1.4-2.2724-3-4.5448-4.6-6.6196-4.1-5.2364-4.5-10.967-2-16.895 1.9-4.7424 6-7.2124 11-8.2004 3.6-0.6916 7.1-0.1976 10.4 1.1856 9.4 3.952 10.8 16.302 5.9 22.922-1.9 2.6676-3.9 5.3352-5.6 8.1016-1.8 2.964-2.4 6.2244-1.8 9.5836 0.8 4.446 3.2 6.6297 7.7 6.5309 6.6739 0.52789 6.8411 0.57885 15.546 1.2158 5.5 0.988 9.1537 3.1212 9.7537 8.6541 0.3 2.964 0.2 6.0268 0.2 9.0896 0 0.0988-0.1 0.1976-0.1 0.3952-25.8 0.0988-51.7 0.0988-77.8 0.0988z" stroke-width=".99398"/>
   <path d="m79.203 78.637c0 0.86286 0.09664 1.7257 0 2.5101-0.19329 1.4904-1.4496 2.3532-3.3825 2.3532h-26.384-34.502c-2.8027 0-3.8657-0.86286-3.8657-3.0592v-1.7257c22.711-0.07844 45.326-0.07844 68.134-0.07844z" stroke-width=".87068"/>
  </g>
 </g>
</svg>
