<svg width="32" height="32" version="1.1" viewBox="0 0 8.4666665 8.4666669" xmlns="http://www.w3.org/2000/svg">
 <g transform="translate(0 -288.53)">
  <g transform="matrix(.094228 0 0 .094228 .82463 299.94)" fill="#fff">
   <g fill="#fff">
    <path d="m75.192-115.14c-7.88-7.88-20.655-7.88-28.535 0l-49.498 49.498c-7.88 7.88-7.88 20.655 0 28.535 7.88 7.88 20.655 7.88 28.535 0l49.498-49.498c7.88-7.88 7.88-20.655 0-28.535zm-52.48 47.534c-1.891 1.891-4.957 1.891-6.848 0s-1.891-4.957 0-6.848 4.957-1.891 6.848 0 1.891 4.957 0 6.848zm4.143-17.839c1.891-1.891 4.957-1.891 6.848 0s1.891 4.957 0 6.848-4.957 1.891-6.848 0-1.892-4.957 0-6.848zm7.651 29.634c-1.891 1.891-4.957 1.891-6.848 0s-1.891-4.957 0-6.848 4.957-1.891 6.848 0c1.891 1.89 1.891 4.957 0 6.848zm3.044-40.329c1.891-1.891 4.957-1.891 6.848 0s1.891 4.957 0 6.848-4.957 1.891-6.848 0-1.891-4.957 0-6.848zm7.947 29.338c-1.891 1.891-4.957 1.891-6.848 0s-1.891-4.957 0-6.848 4.957-1.891 6.848 0c1.891 1.89 1.891 4.957 0 6.848zm10.696-10.696c-1.891 1.891-4.957 1.891-6.848 0s-1.891-4.957 0-6.848 4.957-1.891 6.848 0 1.891 4.957 0 6.848z" fill="#fff"/>
   </g>
  </g>
 </g>
</svg>
