<?xml version="1.0"?>
<svg xmlns="http://www.w3.org/2000/svg" height="512px" viewBox="0 0 384 384" width="512px"><g><path d="m144 0c-79.398438 0-144 64.601562-144 144 0 73.984375 56.105469 135.0625 128 143.054688v96.945312h256v-256h-96.945312c-7.992188-71.886719-69.070313-128-143.054688-128zm-112 144c0-61.761719 50.238281-112 112-112 56.3125 0 102.921875 41.816406 110.71875 96h-126.71875v126.71875c-54.183594-7.796875-96-54.40625-96-110.71875zm222.71875 16c-7.046875 48.945312-45.773438 87.671875-94.71875 94.71875v-94.71875zm97.28125 192h-192v-64.945312c66.632812-7.40625 119.648438-60.421876 127.054688-127.054688h64.945312zm0 0" data-original="#000000" class="active-path" data-old_color="#ffffff" fill="#ffffff"/></g> </svg>
