<?xml version="1.0" encoding="UTF-8" standalone="no"?>
<svg
   xmlns:dc="http://purl.org/dc/elements/1.1/"
   xmlns:cc="http://creativecommons.org/ns#"
   xmlns:rdf="http://www.w3.org/1999/02/22-rdf-syntax-ns#"
   xmlns:svg="http://www.w3.org/2000/svg"
   xmlns="http://www.w3.org/2000/svg"
   xmlns:sodipodi="http://sodipodi.sourceforge.net/DTD/sodipodi-0.dtd"
   xmlns:inkscape="http://www.inkscape.org/namespaces/inkscape"
   width="64"
   height="48"
   version="1.1"
   viewBox="0 0 64 48"
   xml:space="preserve"
   id="svg8437"
   sodipodi:docname="text-big.svg"
   inkscape:version="0.92.1 r15371"><metadata
     id="metadata8443"><rdf:RDF><cc:Work
         rdf:about=""><dc:format>image/svg+xml</dc:format><dc:type
           rdf:resource="http://purl.org/dc/dcmitype/StillImage" /><dc:title></dc:title></cc:Work></rdf:RDF></metadata><defs
     id="defs8441"><inkscape:path-effect
       effect="bspline"
       id="path-effect8455"
       is_visible="true"
       weight="33.333333"
       steps="2"
       helper_size="0"
       apply_no_weight="true"
       apply_with_weight="true"
       only_selected="false" /><inkscape:path-effect
       effect="bspline"
       id="path-effect8451"
       is_visible="true"
       weight="33.333333"
       steps="2"
       helper_size="0"
       apply_no_weight="true"
       apply_with_weight="true"
       only_selected="false" /><inkscape:path-effect
       effect="bspline"
       id="path-effect8447"
       is_visible="true"
       weight="33.333333"
       steps="2"
       helper_size="0"
       apply_no_weight="true"
       apply_with_weight="true"
       only_selected="false" /></defs><sodipodi:namedview
     pagecolor="#ffffff"
     bordercolor="#666666"
     borderopacity="1"
     objecttolerance="10"
     gridtolerance="10"
     guidetolerance="10"
     inkscape:pageopacity="0"
     inkscape:pageshadow="2"
     inkscape:window-width="1377"
     inkscape:window-height="965"
     id="namedview8439"
     showgrid="false"
     inkscape:pagecheckerboard="true"
     inkscape:showpageshadow="false"
     inkscape:zoom="8.3379675"
     inkscape:cx="45.068125"
     inkscape:cy="17.122794"
     inkscape:window-x="3424"
     inkscape:window-y="285"
     inkscape:window-maximized="0"
     inkscape:current-layer="svg8437" /><g
     id="g8589"
     transform="matrix(1.1079942,0,0,1.1054971,1.9882283,2.688706)"
     style="stroke-width:0.90355062"><g
       transform="translate(0,-265.5468)"
       id="g13389"
       style="stroke-width:0.90355062" /><g
       transform="translate(0,-265.5468)"
       id="g13391"
       style="stroke-width:0.90355062" /><g
       transform="translate(0,-265.5468)"
       id="g13393"
       style="stroke-width:0.90355062" /><g
       transform="translate(0,-265.5468)"
       id="g13395"
       style="stroke-width:0.90355062" /><g
       transform="translate(0,-265.5468)"
       id="g13397"
       style="stroke-width:0.90355062" /><g
       transform="translate(0,-265.5468)"
       id="g13399"
       style="stroke-width:0.90355062" /><g
       transform="translate(0,-265.5468)"
       id="g13401"
       style="stroke-width:0.90355062" /><g
       transform="translate(0,-265.5468)"
       id="g13403"
       style="stroke-width:0.90355062" /><g
       transform="translate(0,-265.5468)"
       id="g13405"
       style="stroke-width:0.90355062" /><g
       transform="translate(0,-265.5468)"
       id="g13407"
       style="stroke-width:0.90355062" /><g
       transform="translate(0,-265.5468)"
       id="g13409"
       style="stroke-width:0.90355062" /><g
       transform="translate(0,-265.5468)"
       id="g13411"
       style="stroke-width:0.90355062" /><g
       transform="translate(0,-265.5468)"
       id="g13413"
       style="stroke-width:0.90355062" /><g
       transform="translate(0,-265.5468)"
       id="g13415"
       style="stroke-width:0.90355062" /><g
       transform="translate(0,-265.5468)"
       id="g13417"
       style="stroke-width:0.90355062" /><g
       transform="matrix(0.03452187,0,0,0.03452187,0,-0.4187974)"
       id="g17952"
       style="stroke-width:14.4568119" /><g
       transform="matrix(0.03452187,0,0,0.03452187,0,-0.4187974)"
       id="g17954"
       style="stroke-width:14.4568119" /><g
       transform="matrix(0.03452187,0,0,0.03452187,0,-0.4187974)"
       id="g17956"
       style="stroke-width:14.4568119" /><g
       transform="matrix(0.03452187,0,0,0.03452187,0,-0.4187974)"
       id="g17958"
       style="stroke-width:14.4568119" /><g
       transform="matrix(0.03452187,0,0,0.03452187,0,-0.4187974)"
       id="g17960"
       style="stroke-width:14.4568119" /><g
       transform="matrix(0.03452187,0,0,0.03452187,0,-0.4187974)"
       id="g17962"
       style="stroke-width:14.4568119" /><g
       transform="matrix(0.03452187,0,0,0.03452187,0,-0.4187974)"
       id="g17964"
       style="stroke-width:14.4568119" /><g
       transform="matrix(0.03452187,0,0,0.03452187,0,-0.4187974)"
       id="g17966"
       style="stroke-width:14.4568119" /><g
       transform="matrix(0.03452187,0,0,0.03452187,0,-0.4187974)"
       id="g17968"
       style="stroke-width:14.4568119" /><g
       transform="matrix(0.03452187,0,0,0.03452187,0,-0.4187974)"
       id="g17970"
       style="stroke-width:14.4568119" /><g
       transform="matrix(0.03452187,0,0,0.03452187,0,-0.4187974)"
       id="g17972"
       style="stroke-width:14.4568119" /><g
       transform="matrix(0.03452187,0,0,0.03452187,0,-0.4187974)"
       id="g17974"
       style="stroke-width:14.4568119" /><g
       transform="matrix(0.03452187,0,0,0.03452187,0,-0.4187974)"
       id="g17976"
       style="stroke-width:14.4568119" /><g
       transform="matrix(0.03452187,0,0,0.03452187,0,-0.4187974)"
       id="g17978"
       style="stroke-width:14.4568119" /><g
       transform="matrix(0.03452187,0,0,0.03452187,0,-0.4187974)"
       id="g17980"
       style="stroke-width:14.4568119" /><g
       transform="translate(-40.181377,-304.72394)"
       id="g8646"
       style="stroke-width:0.90355062" /><g
       transform="translate(-40.181377,-304.72394)"
       id="g8648"
       style="stroke-width:0.90355062" /><g
       transform="translate(-40.181377,-304.72394)"
       id="g8650"
       style="stroke-width:0.90355062" /><g
       transform="translate(-40.181377,-304.72394)"
       id="g8652"
       style="stroke-width:0.90355062" /><g
       transform="translate(-40.181377,-304.72394)"
       id="g8654"
       style="stroke-width:0.90355062" /><g
       transform="translate(-40.181377,-304.72394)"
       id="g8656"
       style="stroke-width:0.90355062" /><g
       transform="translate(-40.181377,-304.72394)"
       id="g8658"
       style="stroke-width:0.90355062" /><g
       transform="translate(-40.181377,-304.72394)"
       id="g8660"
       style="stroke-width:0.90355062" /><g
       transform="translate(-40.181377,-304.72394)"
       id="g8662"
       style="stroke-width:0.90355062" /><g
       transform="translate(-40.181377,-304.72394)"
       id="g8664"
       style="stroke-width:0.90355062" /><g
       transform="translate(-40.181377,-304.72394)"
       id="g8666"
       style="stroke-width:0.90355062" /><g
       transform="translate(-40.181377,-304.72394)"
       id="g8668"
       style="stroke-width:0.90355062" /><g
       transform="translate(-40.181377,-304.72394)"
       id="g8670"
       style="stroke-width:0.90355062" /><g
       transform="translate(-40.181377,-304.72394)"
       id="g8672"
       style="stroke-width:0.90355062" /><g
       transform="translate(-40.181377,-304.72394)"
       id="g8674"
       style="stroke-width:0.90355062" /><g
       transform="matrix(0.03070211,0,0,0.03070211,-40.181367,-24.942325)"
       id="g13170"
       style="stroke-width:16.52207375" /><g
       transform="matrix(0.03070211,0,0,0.03070211,-40.181367,-24.942325)"
       id="g13172"
       style="stroke-width:16.52207375" /><g
       transform="matrix(0.03070211,0,0,0.03070211,-40.181367,-24.942325)"
       id="g13174"
       style="stroke-width:16.52207375" /><g
       transform="matrix(0.03070211,0,0,0.03070211,-40.181367,-24.942325)"
       id="g13176"
       style="stroke-width:16.52207375" /><g
       transform="matrix(0.03070211,0,0,0.03070211,-40.181367,-24.942325)"
       id="g13178"
       style="stroke-width:16.52207375" /><g
       transform="matrix(0.03070211,0,0,0.03070211,-40.181367,-24.942325)"
       id="g13180"
       style="stroke-width:16.52207375" /><g
       transform="matrix(0.03070211,0,0,0.03070211,-40.181367,-24.942325)"
       id="g13182"
       style="stroke-width:16.52207375" /><g
       transform="matrix(0.03070211,0,0,0.03070211,-40.181367,-24.942325)"
       id="g13184"
       style="stroke-width:16.52207375" /><g
       transform="matrix(0.03070211,0,0,0.03070211,-40.181367,-24.942325)"
       id="g13186"
       style="stroke-width:16.52207375" /><g
       transform="matrix(0.03070211,0,0,0.03070211,-40.181367,-24.942325)"
       id="g13188"
       style="stroke-width:16.52207375" /><g
       transform="matrix(0.03070211,0,0,0.03070211,-40.181367,-24.942325)"
       id="g13190"
       style="stroke-width:16.52207375" /><g
       transform="matrix(0.03070211,0,0,0.03070211,-40.181367,-24.942325)"
       id="g13192"
       style="stroke-width:16.52207375" /><g
       transform="matrix(0.03070211,0,0,0.03070211,-40.181367,-24.942325)"
       id="g13194"
       style="stroke-width:16.52207375" /><g
       transform="matrix(0.03070211,0,0,0.03070211,-40.181367,-24.942325)"
       id="g13196"
       style="stroke-width:16.52207375" /><g
       transform="matrix(0.03070211,0,0,0.03070211,-40.181367,-24.942325)"
       id="g13198"
       style="stroke-width:16.52207375" /><g
       style="fill:#ffffff;fill-opacity:1;stroke:#ffffff;stroke-width:0.62717396;stroke-miterlimit:4;stroke-dasharray:none;stroke-opacity:1"
       transform="matrix(0.31791213,0,0,0.26114507,-1.2600196,-1.3985272)"
       id="g17809"><path
         style="fill:#ffffff;fill-opacity:1;stroke:#ffffff;stroke-width:0.62717396;stroke-miterlimit:4;stroke-dasharray:none;stroke-opacity:1"
         inkscape:connector-curvature="0"
         d="M 36.452,9.504 C 35.916,7.856 34.38,6.748 32.648,6.748 c -1.732,0 -3.264,1.108 -3.808,2.756 L 4.508,84.008 c -0.684,2.092 0.46,4.36 2.56,5.049 2.1,0.68 4.36,-0.461 5.044,-2.564 l 5.632,-17.252 h 29.8 l 5.632,17.252 c 0.557,1.688 2.116,2.752 3.805,2.752 0.416,0 0.836,-0.064 1.248,-0.196 2.096,-0.688 3.248,-2.937 2.56,-5.048 z M 20.364,61.252 32.652,23.632 44.94,61.252 Z"
         id="path17789" /><path
         style="fill:#ffffff;fill-opacity:1;stroke:#ffffff;stroke-width:0.62717396;stroke-miterlimit:4;stroke-dasharray:none;stroke-opacity:1"
         inkscape:connector-curvature="0"
         d="m 88.305,39.28 c -1.961,-1.96 -4.753,-2.952 -8.297,-2.952 -4.896,0 -7.576,2.36 -9.936,4.444 l -0.336,0.296 c -1.66,1.452 -1.824,3.984 -0.364,5.644 1.46,1.66 3.983,1.82 5.647,0.364 l 0.345,-0.304 c 2.155,-1.9 2.856,-2.444 4.644,-2.444 1.309,0 2.244,0.22 2.633,0.604 0.795,0.796 0.991,3.24 1.035,5.888 -15.508,1.943 -21.424,15.023 -21.424,23.516 0,14.916 14.352,14.916 19.072,14.916 h 6.367 c 2.209,0 4,-1.779 4,-4 V 53.5 C 91.684,47.944 91.708,42.692 88.305,39.28 Z m -6.989,41.972 c -9.412,0 -11.068,-2.229 -11.068,-6.916 0,-3.943 2.531,-13.564 13.428,-15.452 v 22.368 z"
         id="path17791" /></g></g><text
     xml:space="preserve"
     style="font-style:normal;font-weight:normal;font-size:17.33333397px;line-height:1.25;font-family:sans-serif;font-variant-ligatures:normal;font-variant-caps:normal;font-variant-numeric:normal;font-feature-settings:normal;text-align:start;letter-spacing:0px;word-spacing:0px;writing-mode:lr-tb;text-anchor:start;fill:#000000;fill-opacity:1;stroke:none"
     x="2.4461377"
     y="48.352085"
     id="text8597"
     transform="rotate(-17.672836)"><tspan
       sodipodi:role="line"
       id="tspan8595"
       x="2.4461377"
       y="48.352085"
       style="font-style:normal;font-variant:normal;font-weight:normal;font-stretch:normal;font-size:17.33333397px;font-family:'Yanone Kaffeesatz';-inkscape-font-specification:'Yanone Kaffeesatz';fill:#ffffff;fill-opacity:1">tap..tap..</tspan></text>
</svg>