<?xml version="1.0"?>
<svg xmlns="http://www.w3.org/2000/svg" xmlns:xlink="http://www.w3.org/1999/xlink" version="1.1" id="Capa_1" x="0px" y="0px" viewBox="0 0 308.224 308.224" style="enable-background:new 0 0 308.224 308.224;" xml:space="preserve" width="512px" height="512px" class=""><g><g>
	<path d="M269.946,107.319c-65.214-3.035-130.505-2.083-195.774-1.692   c1.077-25.83,5.852-52.509,29.371-67.167c28.267-17.617,91.012-17.731,112.474,10.867c10.389,13.848,34.016,0.321,23.48-13.723   C209.393-4.519,147.154-6.477,103.054,8.888C60.618,23.677,49.267,65.46,47.097,105.736c-1.98,0.005-3.954,0.022-5.929,0.022   c-4.661,0.005-8.044,1.953-10.225,4.781c-1.996,2.148-3.329,5.053-3.372,8.817c-0.528,47.026-14.789,107.231,6.293,151.44   c14.245,29.866,60.51,31.128,88.776,34.473c42.621,5.047,94.177,6.113,131.935-17.459c15.866-9.905,26.902-26.82,28.55-45.525   c3.476-39.417,3.655-81.939,0.419-121.367C282.918,113.258,277.827,107.689,269.946,107.319z M256.305,217.955   c-0.397,20.946,0.577,36.36-18.792,48.451c-31.84,19.88-79.399,15.441-114.873,11.667c-15.354-1.637-30.644-4.509-45.585-8.392   c-13.179-3.421-17.095-4.177-21.049-17.47c-11.101-37.252-3.709-80.134-1.697-119.306c67.618-0.234,135.28-1.49,202.861,1.126   C258.453,161.992,256.838,189.971,256.305,217.955z" data-original="#010002" class="active-path" data-old_color="#ffffff" fill="#ffffff"/>
	<path d="M141.095,188.937c-0.076,13.304-1.033,26.575-0.642,39.885c0.517,17.497,27.712,17.552,27.195,0   c-0.392-13.309,0.566-26.581,0.642-39.885C168.399,171.396,141.203,171.407,141.095,188.937z" data-original="#010002" class="active-path" data-old_color="#ffffff" fill="#ffffff"/>
</g></g> </svg>
